<?xml version="1.0" encoding="utf-8"?>
<!-- Generator: Adobe Illustrator 16.0.0, SVG Export Plug-In . SVG Version: 6.00 Build 0)  -->
<!DOCTYPE svg PUBLIC "-//W3C//DTD SVG 1.1//EN" "http://www.w3.org/Graphics/SVG/1.1/DTD/svg11.dtd">
<svg version="1.1" id="Camada_1" xmlns="http://www.w3.org/2000/svg" xmlns:xlink="http://www.w3.org/1999/xlink" x="0px" y="0px"
	 width="256px" height="256px" viewBox="0 0 256 256" enable-background="new 0 0 256 256" xml:space="preserve">
<g>
	<radialGradient id="SVGID_1_" cx="128" cy="128" r="181.0176" gradientUnits="userSpaceOnUse">
		<stop  offset="0" style="stop-color:#00A94C"/>
		<stop  offset="0.7" style="stop-color:#00A94C"/>
		<stop  offset="1" style="stop-color:#007B3F"/>
	</radialGradient>
	<rect fill-rule="evenodd" clip-rule="evenodd" fill="url(#SVGID_1_)" width="256" height="256"/>
	<path fill-rule="evenodd" clip-rule="evenodd" fill="#000002" d="M104.835,212.568c-2.299-16.84,21.103-28.954,36.14-32.743
		c17.606-4.436,45.189-4.105,59.479,4.137c-1.224-15.516-19.692-23.806-35.279-27.781c-18.378-4.688-38.868-4.508-57.305-0.395
		C61.173,166.207,57.533,199.463,104.835,212.568z"/>
	<path fill-rule="evenodd" clip-rule="evenodd" fill="#97182F" d="M104.835,212.568c13.22,5.639,44.272,4.615,59.125,1.087
		c15.489-3.681,36.322-12.461,36.493-29.693c-14.289-8.242-41.872-8.572-59.479-4.137
		C125.938,183.614,102.536,195.729,104.835,212.568z"/>
	<g>
		<path fill-rule="evenodd" clip-rule="evenodd" fill="#000002" d="M75.683,115.825c21.078,0,38.27-16.97,38.27-37.778
			S96.76,40.268,75.683,40.268s-38.27,16.971-38.27,37.779S54.605,115.825,75.683,115.825z"/>
		<path fill-rule="evenodd" clip-rule="evenodd" fill="#FFFFFF" d="M75.683,111.863c18.867,0,34.257-15.191,34.257-33.817
			S94.55,44.229,75.683,44.229c-18.868,0-34.257,15.191-34.257,33.817S56.815,111.863,75.683,111.863z"/>
		<path fill-rule="evenodd" clip-rule="evenodd" fill="#000002" d="M75.683,89.152c6.116,0,11.104-4.989,11.104-11.105
			s-4.988-11.105-11.104-11.105c-6.117,0-11.106,4.989-11.106,11.105S69.566,89.152,75.683,89.152z"/>
	</g>
	<g>
		<path fill-rule="evenodd" clip-rule="evenodd" fill="#000002" d="M176.649,115.825c21.077,0,38.27-16.97,38.27-37.778
			s-17.192-37.779-38.27-37.779c-21.078,0-38.269,16.971-38.269,37.779S155.571,115.825,176.649,115.825z"/>
		<path fill-rule="evenodd" clip-rule="evenodd" fill="#FFFFFF" d="M176.649,111.863c18.867,0,34.257-15.191,34.257-33.817
			s-15.39-33.817-34.257-33.817s-34.256,15.191-34.256,33.817S157.782,111.863,176.649,111.863z"/>
		<path fill-rule="evenodd" clip-rule="evenodd" fill="#000002" d="M176.649,89.152c6.116,0,11.105-4.989,11.105-11.105
			s-4.989-11.105-11.105-11.105s-11.105,4.989-11.105,11.105S170.533,89.152,176.649,89.152z"/>
	</g>
</g>
</svg>
